<svg xmlns="http://www.w3.org/2000/svg" viewBox="1165 -11.135 163.761 33.381"><defs><style>.a{fill:#8e8e8e;}</style></defs><g transform="translate(1000 -51)"><path class="a" d="M15.144,12.666h4.187l1.227-.866H15a3.623,3.623,0,0,1,.144.866" transform="translate(160.807 36.564)"/><path class="a" d="M22.735,7.6H15.517a7.491,7.491,0,0,0-.217.866h7.435a3.478,3.478,0,0,0,0-.866" transform="translate(160.724 37.733)"/><path class="a" d="M13.75,25.4l-.65.866h9.672a2.27,2.27,0,0,0,.65-.866Z" transform="translate(161.336 32.781)"/><path class="a" d="M11.017,29.9v.072c-.072.289-.144.505-.217.794h5.919c.505-.289,1.083-.577,1.66-.866Z" transform="translate(161.976 31.529)"/><path class="a" d="M17.9,21.666h6.713L24.18,20.8h-5.2c-.072.072-.144.072-.144.144-.289.217-.65.505-.938.722" transform="translate(160.001 34.061)"/><path class="a" d="M51.271,28.2V39.316H48.6l.144-7.868V30.365l-.072.361a8.847,8.847,0,0,1-.289,1.155L46.29,39.316H43.908L41.887,32.17l-.505-1.949a18.93,18.93,0,0,1,.072,2.093l.144,7H39V28.2h4.042l1.732,6.208.361,1.8a10.767,10.767,0,0,1,.289-1.371l1.8-6.641Z" transform="translate(154.131 32.002)"/><path class="a" d="M66.429,38.124a5.382,5.382,0,0,1-1.011,1.227,4.643,4.643,0,0,1-3.1,1.155A3.906,3.906,0,0,1,58.2,36.247c0-1.949.938-4.547,4.187-4.547a4.173,4.173,0,0,1,2.959,1.155A5.255,5.255,0,0,1,66.5,36.536H60.654a1.852,1.852,0,0,0,1.877,2.021,2.214,2.214,0,0,0,2.093-1.444Zm-2.382-3.032a2.534,2.534,0,0,0-.433-1.155,1.639,1.639,0,0,0-1.155-.433,1.769,1.769,0,0,0-1.227.505,1.858,1.858,0,0,0-.505,1.083h3.32Z" transform="translate(148.79 31.028)"/><path class="a" d="M79.64,28.2V39.316H77.475v-.794a2.958,2.958,0,0,1-2.238,1.011,3.277,3.277,0,0,1-2.31-.938,4.485,4.485,0,0,1-1.227-3.32c0-3.1,1.732-4.331,3.393-4.331a3.187,3.187,0,0,1,2.165.866V28.272H79.64Zm-2.31,6.929a3.453,3.453,0,0,0-.505-2.021,1.29,1.29,0,0,0-.938-.505c-1.732,0-1.732,2.165-1.732,2.526,0,1.155.289,2.526,1.516,2.526a1.455,1.455,0,0,0,.794-.217,2.7,2.7,0,0,0,.866-2.31" transform="translate(145.035 32.002)"/><path class="a" d="M85.7,28.1h2.382v1.877H85.7Zm0,2.887h2.382v8.229H85.7Z" transform="translate(141.14 32.03)"/><path class="a" d="M99.423,38.3a4.011,4.011,0,0,1-1.3,1.444,4.23,4.23,0,0,1-2.382.722A3.924,3.924,0,0,1,91.7,36.2c0-2.382,1.371-4.4,4.114-4.4a3.923,3.923,0,0,1,3.537,1.949l-1.8,1.083a1.924,1.924,0,0,0-.722-.866,1.607,1.607,0,0,0-.938-.289c-1.3,0-1.732,1.516-1.732,2.454,0,1.083.505,2.454,1.8,2.454a1.579,1.579,0,0,0,1.227-.577,1.475,1.475,0,0,0,.361-.65Z" transform="translate(139.471 31.001)"/><path class="a" d="M104.461,34.426a2.367,2.367,0,0,1,.866-1.8A4.27,4.27,0,0,1,108,31.9c1.011,0,3.465.217,3.465,2.382v4.764a2.255,2.255,0,0,0,.217,1.3H109.3v-.722a3.89,3.89,0,0,1-2.526.938,2.5,2.5,0,0,1-2.671-2.526,2.765,2.765,0,0,1,1.732-2.382,16.789,16.789,0,0,1,3.248-.722V34.5c0-.361-.072-1.011-.938-1.011-1.083,0-1.227.65-1.3.938h-2.382Zm3.1,2.454c-.433.144-1.011.361-1.011,1.011a.944.944,0,0,0,.938.866,2.052,2.052,0,0,0,.866-.289,2.126,2.126,0,0,0,.866-2.093Z" transform="translate(136.021 30.973)"/><rect class="a" width="2.454" height="11.116" transform="translate(249.722 60.202)"/><path class="a" d="M131.849,35.784a3.535,3.535,0,0,0,1.083.866,4.969,4.969,0,0,0,2.165.505c1.083,0,2.021-.505,2.021-1.3,0-.866-1.083-1.011-1.949-1.155a15.631,15.631,0,0,1-1.8-.289c-.65-.144-2.959-.65-2.959-3.032,0-2.887,2.526-3.681,4.475-3.681a6.8,6.8,0,0,1,4.908,2.093l-2.021,1.444a4.089,4.089,0,0,0-1.083-.866,3.835,3.835,0,0,0-1.8-.505c-1.083,0-1.66.65-1.66,1.155,0,.866.938,1.011,1.444,1.011a23.738,23.738,0,0,1,3.393.65,2.768,2.768,0,0,1,1.949,2.743,3.876,3.876,0,0,1-.866,2.382,5.39,5.39,0,0,1-4.187,1.516,6,6,0,0,1-5.053-2.238Z" transform="translate(128.844 32.141)"/><path class="a" d="M153.323,38.3a4.011,4.011,0,0,1-1.3,1.444,4.23,4.23,0,0,1-2.382.722A3.924,3.924,0,0,1,145.6,36.2c0-2.382,1.371-4.4,4.114-4.4a3.923,3.923,0,0,1,3.537,1.949l-1.8,1.011a1.924,1.924,0,0,0-.722-.866,1.607,1.607,0,0,0-.938-.289c-1.3,0-1.732,1.516-1.732,2.454,0,1.083.505,2.454,1.8,2.454a1.579,1.579,0,0,0,1.227-.577,1.475,1.475,0,0,0,.361-.65Z" transform="translate(124.477 31.001)"/><path class="a" d="M158.6,28.1h2.382v1.877H158.6Zm0,2.887h2.382v8.229H158.6Z" transform="translate(120.861 32.03)"/><path class="a" d="M172.329,38.124a5.382,5.382,0,0,1-1.011,1.227,4.643,4.643,0,0,1-3.1,1.155,3.905,3.905,0,0,1-4.114-4.259c0-1.949.938-4.547,4.187-4.547a4.173,4.173,0,0,1,2.959,1.155,5.255,5.255,0,0,1,1.155,3.681h-5.847a1.852,1.852,0,0,0,1.877,2.021,2.214,2.214,0,0,0,2.093-1.444Zm-2.382-3.032a2.534,2.534,0,0,0-.433-1.155,1.639,1.639,0,0,0-1.155-.433,1.769,1.769,0,0,0-1.227.505,1.858,1.858,0,0,0-.505,1.083h3.32Z" transform="translate(119.331 31.028)"/><path class="a" d="M180.526,32.838a2.547,2.547,0,0,1,.794-.65,4.352,4.352,0,0,1,1.516-.289,2.536,2.536,0,0,1,1.444.361c.866.433,1.083,1.227,1.083,2.454v5.63h-2.382v-4.62c0-.722,0-1.011-.144-1.227a1.119,1.119,0,0,0-1.083-.65c-1.3,0-1.3,1.011-1.3,2.021v4.4H178V32.117h2.454v.722Z" transform="translate(115.464 30.973)"/><path class="a" d="M198.123,38.3a4.011,4.011,0,0,1-1.3,1.444,4.23,4.23,0,0,1-2.382.722A3.924,3.924,0,0,1,190.4,36.2c0-2.382,1.371-4.4,4.114-4.4a3.923,3.923,0,0,1,3.537,1.949l-1.8,1.011a1.924,1.924,0,0,0-.722-.866,1.607,1.607,0,0,0-.938-.289c-1.3,0-1.732,1.516-1.732,2.454,0,1.083.505,2.454,1.8,2.454a1.579,1.579,0,0,0,1.227-.577,1.475,1.475,0,0,0,.361-.65Z" transform="translate(112.014 31.001)"/><path class="a" d="M210.829,38.124a5.382,5.382,0,0,1-1.011,1.227,4.643,4.643,0,0,1-3.1,1.155,3.906,3.906,0,0,1-4.114-4.259c0-1.949.938-4.547,4.187-4.547a4.172,4.172,0,0,1,2.959,1.155,5.255,5.255,0,0,1,1.155,3.681h-5.847a1.852,1.852,0,0,0,1.877,2.021,2.214,2.214,0,0,0,2.093-1.444Zm-2.382-3.032a2.534,2.534,0,0,0-.433-1.155,1.639,1.639,0,0,0-1.155-.433,1.769,1.769,0,0,0-1.227.505,1.858,1.858,0,0,0-.505,1.083h3.32Z" transform="translate(108.621 31.028)"/><path class="a" d="M217.444,37.53a3.421,3.421,0,0,0,2.382,1.155c.577,0,1.444-.217,1.444-.794,0-.289-.144-.361-.289-.505a4.221,4.221,0,0,0-1.371-.289l-1.083-.217a3.141,3.141,0,0,1-1.371-.722,2.192,2.192,0,0,1-.577-1.516c0-1.371,1.155-2.743,3.465-2.743a6.288,6.288,0,0,1,3.681,1.227L222.208,34.5a3.625,3.625,0,0,0-2.021-.794c-.938,0-1.155.361-1.155.577,0,.505.505.577,1.3.722,1.66.289,3.537.722,3.537,2.671s-1.949,2.887-3.9,2.887A5.228,5.228,0,0,1,216,38.974Z" transform="translate(104.893 30.973)"/><path class="a" d="M42.964,4.8v9.745H41.52V4.8H38.2V3.5h8.084V4.8Z" transform="translate(154.354 38.873)"/><path class="a" d="M52.072,3.5h1.3V7.975a2.655,2.655,0,0,1,2.238-.938A2.375,2.375,0,0,1,58.135,8.7a5.677,5.677,0,0,1,.144,1.66v4.331h-1.3v-3.9a3.99,3.99,0,0,0-.289-2.021,1.488,1.488,0,0,0-1.371-.722,1.949,1.949,0,0,0-1.949,1.588,7.86,7.86,0,0,0-.072,1.371v3.609H52V3.5Z" transform="translate(150.515 38.873)"/><path class="a" d="M70.229,13.669a3.365,3.365,0,0,1-3.32,2.526c-2.165,0-3.609-1.516-3.609-3.97A3.528,3.528,0,0,1,66.909,8.4,3.183,3.183,0,0,1,70.157,11a6.842,6.842,0,0,1,.144,1.516h-5.63a2.476,2.476,0,0,0,2.382,2.743A1.953,1.953,0,0,0,69,13.525ZM68.858,11.5a2.107,2.107,0,0,0-2.093-2.238A2.172,2.172,0,0,0,64.671,11.5h4.187Z" transform="translate(147.371 37.51)"/><path class="a" d="M87.674,3.4l4.114,11.116H88.829l-.577-1.8H84.137l-.577,1.8H80.6L84.714,3.4h2.959ZM86.23,6.071,85.8,7.8c-.217.866-.65,2.165-.938,2.959h2.815Z" transform="translate(142.559 38.901)"/><path class="a" d="M105.023,13.6a4.011,4.011,0,0,1-1.3,1.444,4.23,4.23,0,0,1-2.382.722A3.924,3.924,0,0,1,97.3,11.5c0-2.382,1.371-4.4,4.114-4.4a3.923,3.923,0,0,1,3.537,1.949l-1.8,1.011a1.924,1.924,0,0,0-.722-.866,1.607,1.607,0,0,0-.938-.289c-1.3,0-1.732,1.516-1.732,2.454,0,1.083.505,2.454,1.8,2.454a1.579,1.579,0,0,0,1.227-.577,1.475,1.475,0,0,0,.361-.65Z" transform="translate(137.913 37.872)"/><path class="a" d="M110.561,9.726a2.367,2.367,0,0,1,.866-1.8A4.27,4.27,0,0,1,114.1,7.2c1.011,0,3.465.217,3.465,2.382v4.692a2.255,2.255,0,0,0,.217,1.3H115.4v-.722a3.89,3.89,0,0,1-2.526.938,2.5,2.5,0,0,1-2.671-2.526,2.765,2.765,0,0,1,1.732-2.382,16.789,16.789,0,0,1,3.248-.722V9.726c0-.361-.072-1.011-.938-1.011-1.083,0-1.227.65-1.3.938h-2.382Zm3.032,2.454c-.433.144-1.011.361-1.011,1.011a.944.944,0,0,0,.938.866,2.052,2.052,0,0,0,.866-.289,2.126,2.126,0,0,0,.866-2.093Z" transform="translate(134.324 37.844)"/><path class="a" d="M131.04,3.4V14.516h-2.165v-.794a2.958,2.958,0,0,1-2.238,1.011,3.277,3.277,0,0,1-2.31-.938,4.485,4.485,0,0,1-1.227-3.32c0-3.1,1.732-4.331,3.393-4.331a3.187,3.187,0,0,1,2.165.866V3.4Zm-2.31,7a3.453,3.453,0,0,0-.505-2.021,1.29,1.29,0,0,0-.938-.505c-1.732,0-1.732,2.165-1.732,2.526,0,1.155.289,2.526,1.516,2.526a1.455,1.455,0,0,0,.794-.217,2.768,2.768,0,0,0,.866-2.31" transform="translate(130.736 38.901)"/><path class="a" d="M144.929,13.424a5.382,5.382,0,0,1-1.011,1.227,4.643,4.643,0,0,1-3.1,1.155,3.906,3.906,0,0,1-4.114-4.259C136.7,9.6,137.638,7,140.887,7a4.173,4.173,0,0,1,2.959,1.155A5.255,5.255,0,0,1,145,11.836h-5.847a1.852,1.852,0,0,0,1.877,2.021,2.214,2.214,0,0,0,2.093-1.444Zm-2.454-3.032a2.534,2.534,0,0,0-.433-1.155,1.639,1.639,0,0,0-1.155-.433,1.769,1.769,0,0,0-1.227.505,1.858,1.858,0,0,0-.505,1.083h3.32Z" transform="translate(126.953 37.9)"/><path class="a" d="M153.382,8.183a2.76,2.76,0,0,1,2.31-1.083,2.89,2.89,0,0,1,2.31.938,3.718,3.718,0,0,1,2.454-.938,2.456,2.456,0,0,1,2.31,1.155,4.429,4.429,0,0,1,.217,1.877v5.341H160.6V11.142a7.448,7.448,0,0,0-.072-1.371,1.014,1.014,0,0,0-1.083-.722,1.645,1.645,0,0,0-.794.217c-.433.361-.433.866-.433,1.732v4.475h-2.382V10.637a2.077,2.077,0,0,0-.217-1.155,1.432,1.432,0,0,0-.938-.433,1.164,1.164,0,0,0-.65.217,1.837,1.837,0,0,0-.577,1.588v4.692H151V7.389h2.382Z" transform="translate(122.975 37.872)"/><path class="a" d="M177.368,7.4l-2.887,8.878a5.115,5.115,0,0,1-.794,1.516,2.117,2.117,0,0,1-1.732.65h-1.732V16.495h.866c.361,0,1.011,0,1.011-.577a1.36,1.36,0,0,0-.144-.577L169.5,7.4h2.6l1.371,5.847L174.841,7.4h2.526Z" transform="translate(117.828 37.788)"/><path class="a" d="M193.435,11.7a5.56,5.56,0,0,1-1.227,3.32,3.253,3.253,0,0,1-2.6,1.371,2.114,2.114,0,0,1-2.31-2.382,5.69,5.69,0,0,1,1.3-3.393A3.432,3.432,0,0,1,191.126,9.1c1.516-.072,2.31.938,2.31,2.6m-2.31-2.238c-.65,0-1.227.577-1.732,1.66a9.614,9.614,0,0,0-.866,3.537c0,.866.361,1.371,1.083,1.371.794,0,1.3-.577,1.8-1.8a9.86,9.86,0,0,0,.722-3.32c0-.938-.361-1.444-1.011-1.444" transform="translate(112.877 37.317)"/><path class="a" d="M201.3,7.892l-.072.505h-1.66l-1.3,5.125c-.866,3.537-1.444,5.341-3.393,5.341-.866,0-1.371-.361-1.371-.938a.515.515,0,0,1,.577-.505c.361,0,.433.217.577.577.144.289.289.433.577.433.577,0,.794-.938,1.3-2.887L198.264,8.4H196.82l.072-.505h1.444c.722-3.1,2.021-4.692,3.9-4.692,1.011,0,1.66.505,1.66,1.011a.493.493,0,0,1-.505.505.643.643,0,0,1-.577-.361c-.217-.361-.361-.65-.866-.65-.794,0-1.444.938-1.877,2.743l-.361,1.444Z" transform="translate(111.152 38.957)"/><path class="a" d="M23.416,17.042a7.862,7.862,0,0,0-3.97-4.331s-1.155-.577-.217.289c.217.217.794.722.794.722s4.331,4.547-1.011,7.218c-4.475,2.454-6.857,3.393-7.723,3.826-.361.217-1.516.794-2.743,1.588a5.126,5.126,0,0,1-.938-4.764c1.083-3.393,3.753-5.125,5.414-6.5,1.732-1.371,6.713-4.764,6.713-4.764s3.537-2.165,2.526-5.991S15.548.873,15.476.873c-2.021-.072-3.97,0-4.62,0C9.7.8,9.846.368,8.186.079A2.731,2.731,0,0,0,5.37,1.09,17.652,17.652,0,0,1,2.628,2.822a.7.7,0,0,0,0,1.3l.144.072a5.851,5.851,0,0,0,1.444.433A11.268,11.268,0,0,0,10.64,3.616c1.083-.505,4.62-.505,4.62-.505.938.072,1.588.144,2.093.217a4.671,4.671,0,0,1,2.31,1.3c1.516,1.66-1.371,3.826-1.371,3.826L14.538,11.2S11,13.721,9.99,14.515c-.938.794-4.331,3.753-4.764,7.363-.289,2.743.361,4.114,1.8,5.486a9.3,9.3,0,0,0-2.382,2.382,3.8,3.8,0,0,0-.289,3.248c.361,1.083.217-.217.361-1.083.217-1.155,1.083-1.732,2.887-2.887.289-.144.505-.361.794-.505.144.072.217.217.361.289,1.877,1.444,3.826,2.887,5.341,3.826a4.9,4.9,0,0,0,1.227.577c.072-.144-.794-.938-.794-.938L9.7,27.652c.577-.289,1.155-.65,1.8-1.011,5.558-2.671,7.507-3.753,7.507-3.753s5.7-2.382,4.4-5.847M6.6,2.533a.65.65,0,1,1,.65-.65.647.647,0,0,1-.65.65" transform="translate(164.374 39.84)"/><path class="a" d="M2.967,5.6c-.217.072-.794.217-1.011.577a.736.736,0,0,1-.577.361C1.163,6.611.3,6.755.224,6.827c-.361.144-.217.289.361.144.361-.072,1.227-.433.794.289a.812.812,0,0,1-.289.361l-.144.144s-.433.361.217.072a1.577,1.577,0,0,0,.722-.794L2.1,6.611a1.774,1.774,0,0,1,.505-.65c.144-.144.505-.217.505-.289" transform="translate(164.973 38.289)"/></g></svg>