<?xml version="1.0" encoding="utf-8"?>
<!-- Generator: Adobe Illustrator 17.1.0, SVG Export Plug-In . SVG Version: 6.00 Build 0)  -->
<!DOCTYPE svg PUBLIC "-//W3C//DTD SVG 1.1//EN" "http://www.w3.org/Graphics/SVG/1.1/DTD/svg11.dtd">
<svg version="1.1" id="Layer_1" xmlns="http://www.w3.org/2000/svg" xmlns:xlink="http://www.w3.org/1999/xlink" x="0px" y="0px"
	 viewBox="67 45 152 90" enable-background="new 67 45 152 90" xml:space="preserve">
<g>
	<path fill="#FF6600" d="M202.1,116.9c0,7.7,1.8,11.5,5.5,11.5c5.3,0,9-7.4,9.9-19.7h1.5c-0.4,7.1-1.5,11.5-3.7,16
		c-3.4,6.7-10.4,10.5-18.4,10.5c-9.2,0-16.6-5.4-19.7-14.7c-1.5-4.2-1.8-7.4-1.8-14.2V68.5h-8.9v-1.2c8.9-0.6,12.9-1.6,18.2-4.8
		c6.7-3.8,11.4-9,16.1-17.6h1.2v22.4h13.2v1.2h-13.2L202.1,116.9C202.1,116.8,202.1,116.9,202.1,116.9z"/>
	<path fill="#FF6600" d="M130.4,45v0.9h1.2c3.3,0,6.5,0.3,7.4,0.9c1.3,0.7,1.5,1.2,1.5,9.5v74.1h0c0,0,0,0.1,0,0.1
		c0,1.6-1.1,3.1-4.1,3.1c-3.4,0-4.4-1.5-4.4-3.1c0,0,0-0.1,0-0.1h0v-37c0-11.9-3.7-18.7-12.4-23.1c-5.5-2.8-12.6-4.2-20.1-4.2
		c-15.8,0-30.2,7.7-30.2,16.3c0,5.7,5.3,9.7,12.7,9.7c7.7,0,13.3-4.2,13.3-9.9c0-5.7-5.2-9.6-12.6-9.6c-1.5,0-2.4,0-4.3,0.4
		c4.3-2.8,10.2-4.6,15.5-4.6c8.3,0,12,4.2,12,13.5c0,8.9-3.1,12-15.1,15.8L87.1,99c-14.5,4.5-20.1,9.9-20.1,18.7
		c0,9.7,8.9,17.3,20,17.3c8.9,0,13.5-2.8,19-12c3,8.3,8.6,12,17.3,12h22.4c9.2-0.1,16.6-5.4,19.7-14.7c1.5-4.2,1.8-7.4,1.8-14.2V45
		L130.4,45L130.4,45z M105.3,121.4l-0.9,1.5c-2.7,4.5-4.9,6.5-7.1,6.5c-2.7,0-3.6-3.5-3.6-15.1c0-11.5,1.2-14.9,6.1-18.4l2.1-1.5
		c1.3-0.9,2.1-1.6,3.4-3.5C105.3,90.9,105.3,121.4,105.3,121.4z"/>
</g>
</svg>
