<svg xmlns="http://www.w3.org/2000/svg" viewBox="67 45 152 90"><g fill="#F60"><path d="M202.1 116.9c0 7.7 1.8 11.5 5.5 11.5 5.3 0 9-7.4 9.9-19.7h1.5c-.4 7.1-1.5 11.5-3.7 16-3.4 6.7-10.4 10.5-18.4 10.5-9.2 0-16.6-5.4-19.7-14.7-1.5-4.2-1.8-7.4-1.8-14.2V68.5h-8.9v-1.2c8.9-.6 12.9-1.6 18.2-4.8 6.7-3.8 11.4-9 16.1-17.6h1.2v22.4h13.2v1.2H202l.1 48.4c0-.1 0 0 0 0z"/><path d="M130.4 45v.9h1.2c3.3 0 6.5.3 7.4.9 1.3.7 1.5 1.2 1.5 9.5v74.2c0 1.6-1.1 3.1-4.1 3.1-3.4 0-4.4-1.5-4.4-3.1V93.4c0-11.9-3.7-18.7-12.4-23.1-5.5-2.8-12.6-4.2-20.1-4.2-15.8 0-30.2 7.7-30.2 16.3 0 5.7 5.3 9.7 12.7 9.7 7.7 0 13.3-4.2 13.3-9.9s-5.2-9.6-12.6-9.6c-1.5 0-2.4 0-4.3.4 4.3-2.8 10.2-4.6 15.5-4.6 8.3 0 12 4.2 12 13.5 0 8.9-3.1 12-15.1 15.8L87.1 99c-14.5 4.5-20.1 9.9-20.1 18.7 0 9.7 8.9 17.3 20 17.3 8.9 0 13.5-2.8 19-12 3 8.3 8.6 12 17.3 12h22.4c9.2-.1 16.6-5.4 19.7-14.7 1.5-4.2 1.8-7.4 1.8-14.2V45h-36.8zm-25.1 76.4l-.9 1.5c-2.7 4.5-4.9 6.5-7.1 6.5-2.7 0-3.6-3.5-3.6-15.1 0-11.5 1.2-14.9 6.1-18.4l2.1-1.5c1.3-.9 2.1-1.6 3.4-3.5v30.5z"/></g></svg>